<?xml version="1.0" encoding="utf-8"?>
<!-- Generator: Adobe Illustrator 19.0.0, SVG Export Plug-In . SVG Version: 6.00 Build 0)  -->
<svg version="1.1" id="Layer_1" xmlns="http://www.w3.org/2000/svg" xmlns:xlink="http://www.w3.org/1999/xlink" x="0px" y="0px"
	 viewBox="0 0 960 560" style="enable-background:new 0 0 960 560;" xml:space="preserve">
<style type="text/css">
	.st0{fill:#818991;}
	.st1{fill:#4D4D4D;}
	.st2{fill:#333333;}
</style>
<g id="XMLID_1_">
	<path id="XMLID_12_" class="st0" d="M621.2,321c0,8.1-0.6,15.5-1.7,23.2c-1,8,0.5,16.1-1.5,23.7c-2.1,7.7-1.1,16.6-4.1,23.9
		c-3.1,7.4-11.2,12.3-15.2,19.1c-4,6.9-3.5,16.9-8.3,23.2c-4.8,6.3-12.1,11-17.7,16.6c-5.6,5.6-12.4,10.2-18.7,15
		c-6.3,4.8-10.4,13.7-17.3,17.7c-6.8,4-15.7,5.2-23.1,8.2c-7.3,3-16.7-0.1-24.4,2c-7.6,2-15,3.2-23,4.2c-7.8,1-15.2,5-23.3,5
		c-8.1,0-16.3,2.2-24.1,1.2c-8-1-16.8-0.2-24.4-2.2c-7.7-2.1-13.8-9.8-21.1-12.9c-7.4-3.1-16.7-2.8-23.5-6.7
		c-6.9-4-11.8-11.5-18.1-16.3c-6.3-4.8-13.5-9-19.1-14.6c-5.6-5.6-13.4-10-18.2-16.3c-4.8-6.3-7.4-14.7-11.4-21.6
		c-4-6.8-6.2-14.9-9.2-22.3c-3-7.3-5.6-15-7.7-22.7c-2-7.6-2.1-15.7-3.1-23.7c-1-7.8-1-15.6-1-23.7c0-8.1,2.4-15.6,3.4-23.4
		c1-8,2.5-15.4,4.5-23c2.1-7.7-2.7-17.9,0.4-25.2c3.1-7.4,6.6-15.2,10.6-22.1c4-6.9,12.8-11,17.6-17.3c4.8-6.3,13-9.4,18.6-15
		c5.6-5.6,5.5-17.9,11.8-22.8c6.3-4.8,17-3.5,23.9-7.5c6.8-4,13.8-7.3,21.2-10.3c7.3-3,14.2-7.1,21.9-9.2c7.6-2,14.8-8.1,22.8-9.1
		c7.8-1,16.3,3.8,24.3,3.8c8.1,0,15.4,3.9,23.2,4.9c8,1,15.6,0.7,23.3,2.8c7.7,2.1,17.4-1.5,24.7,1.5c7.4,3.1,12.6,10.9,19.4,14.9
		c6.9,4,16.4,4.5,22.7,9.3c6.3,4.8,9.4,13.7,15,19.3s12.1,10.5,16.9,16.8c4.8,6.3,11.8,11.5,15.8,18.4c4,6.8-0.2,17.7,2.9,25.1
		c3,7.3,8.5,13.4,10.6,21.1c2,7.6,4.9,15,5.9,23C624.3,305,621.2,312.9,621.2,321z"/>
</g>
<g id="XMLID_2_">
	<path id="XMLID_33_" class="st1" d="M458.5,286.5c0,2.4,2.5,4.9,2.1,7.2c-0.5,2.4-2,4.4-2.9,6.6c-0.9,2.2-3.1,3.5-4.4,5.5
		c-1.3,2-2.7,3.5-4.4,5.1c-1.7,1.7-2.2,4.5-4.2,5.8c-2,1.3-2.6,5.9-4.8,6.8c-2.2,0.9-5.7-1.2-8.1-0.7c-2.3,0.5-4.8-0.3-7.2-0.3
		s-5.4,3.3-7.7,2.8c-2.4-0.5-3.3-5.9-5.5-6.8c-2.2-0.9-3.8-2.2-5.8-3.5c-2-1.3-5-1.1-6.7-2.8c-1.7-1.7-3.1-3.6-4.5-5.5
		c-1.3-2-2.2-4.1-3.1-6.3c-0.9-2.2-2.9-4.1-3.3-6.5c-0.5-2.3,2.6-4.8,2.6-7.3s-4.3-5.2-3.8-7.5c0.5-2.4,5.1-3.5,6-5.7
		c0.9-2.2-0.8-5.8,0.6-7.7c1.3-2,4.5-2.5,6.2-4.2c1.7-1.7,2.8-4,4.8-5.3c2-1.3,4.4-1.8,6.6-2.7c2.2-0.9,3.7-4.7,6.1-5.2
		c2.3-0.5,5.2,2.9,7.6,2.9s4.4,1.3,6.7,1.8c2.4,0.5,5.4-1.8,7.6-0.9c2.2,0.9,4.9,1.6,6.9,2.9c2,1.3,1.7,5.4,3.4,7.1
		c1.7,1.7,1.7,4.1,3.1,6.1c1.3,2,1.9,3.6,2.8,5.9c0.9,2.2,7.8,2.6,8.3,4.9C463.7,281.1,458.5,284.1,458.5,286.5z"/>
</g>
<g id="XMLID_3_">
	<path id="XMLID_31_" class="st1" d="M508.8,361c0,2.5-1.8,4.8-1.4,7.1c0.4,2.5-0.9,5.3-0.1,7.5c0.8,2.4,2,4.7,3.3,6.7
		c1.3,2.1,5.8,1.3,7.5,2.9c1.8,1.7,2.8,2.9,4.9,3.9c2.2,1,3.5,0.8,6,0.8c2.5,0,5.3,3.6,7.5,2.6c2.1-1,4.2-2.8,6-4.5
		c1.7-1.6,2.5-4.1,3.8-6.3c1.2-2,1.1-4.5,2-6.9c0.8-2.2,5.2-3.7,5.6-6.1c0.4-2.3-1-5.2-1-7.6c0-2.5-2.4-4.7-2.8-7
		c-0.4-2.5-0.7-4.7-1.5-6.9c-0.8-2.4,1.3-6.3,0.1-8.3c-1.3-2.1-3.6-4.3-5.3-5.9c-1.8-1.7-6-0.1-8.1-1c-2.2-1-4-4-6.4-4
		c-2.5,0-5.1,0.8-7.4,1.8c-2.1,1-4,2.9-5.8,4.6c-1.7,1.6-3.9,3.1-5.3,5.3c-1.2,2-3.4,4-4.3,6.4c-0.8,2.2,2.8,5.7,2.4,8.1
		C508.4,356.5,508.8,358.5,508.8,361z"/>
</g>
<g id="XMLID_4_">
	<path id="XMLID_29_" class="st1" d="M327.8,391c0-2.3-2.3-5.1-1.8-7.3c0.5-2.2,6-2.7,7-4.7c1-2-0.7-5.6,0.7-7.3
		c1.4-1.8,2.8-4,4.6-5.4c1.7-1.4,4.3-2,6.4-3c2-1,4.8,0.4,7-0.1c2.1-0.5,4.1-2.2,6.4-2.2c2.3,0,5-1.6,7.1-1.1
		c2.2,0.5,4.9,1.1,6.9,2.1c2,1,1.3,6.3,3,7.7c1.8,1.4,3.4,2.2,4.8,3.9c1.4,1.7,3.7,2.6,4.7,4.7c1,2,3.6,3.6,4.1,5.8
		c0.5,2.1,2.1,4.7,2.1,7c0,2.3-2.2,4.7-2.7,6.9c-0.5,2.2,0,5.2-1,7.2c-1,2-4.6,2.6-6,4.4c-1.4,1.8-3.6,2.4-5.3,3.8
		c-1.7,1.4-3.1,3-5.1,4c-2,1-3.5,3.5-5.7,4c-2.1,0.5-4.6,0.2-6.9,0.2c-2.3,0-4.7,0.1-6.9-0.4c-2.2-0.5-5.4,0.5-7.4-0.5
		c-2-1-3.3-4-5.1-5.4c-1.8-1.4-4.8-2.1-6.2-3.9c-1.4-1.7,1.1-6.1,0.1-8.1c-1-2-0.8-3.9-1.3-6.1C330.8,394.9,327.8,393.3,327.8,391z"
		/>
</g>
<g id="XMLID_5_">
	<path id="XMLID_27_" class="st1" d="M448.4,197.5c0,2.5,1.2,4.5-0.7,6.7c-1.5,1.7-4.4,1.5-6.9,2.8c-2.1,1.1-3.4,4-6.1,4.8
		c-2.4,0.7-5.1-0.8-7.8-0.4c-2.5,0.3-4.8,1.8-7.4,1.8c-2.7,0-4.9-2-7.4-2.4c-2.7-0.4-5.3,0.7-7.6,0c-2.6-0.8-5.9,0.3-8-0.9
		c-2.5-1.3-4.9-3.1-6.4-4.9c-1.9-2.1-2.6-5.2-2.6-7.7c0-2.5,2.8-3.6,4.7-5.7c1.5-1.7,1.6-5.7,4.1-7c2.1-1.1,4.3-3.8,7-4.6
		c2.4-0.7,5.5,0,8.2-0.3c2.5-0.3,5.3-1.4,7.9-1.4c2.7,0,5.4,1.3,7.9,1.6c2.7,0.4,4.6,3.7,7,4.4c2.6,0.8,6-0.7,8.1,0.4
		c2.5,1.3,2.9,5,4.5,6.7C448.8,193.7,448.4,195,448.4,197.5z"/>
</g>
<g id="XMLID_6_">
	<path id="XMLID_28_" class="st1" d="M566.1,252c0,2.4,1.7,5.3,1.2,7.5c-0.6,2.3-1.1,5.3-2.2,7.3c-1.1,2.1-4,3.6-5.5,5.3
		c-1.6,1.8-4.7,1.8-6.7,3.1c-2,1.3-3,5.2-5.2,5.8c-2.2,0.7-5.2-1-7.6-1c-2.4,0-4.2-2.3-6.4-3c-2.3-0.7-6.4,2.5-8.4,1.2
		c-2-1.3-1.1-6.1-2.7-7.9c-1.6-1.7-3.1-3.1-4.2-5.2c-1.1-2.1-3.9-3.5-4.5-5.9c-0.5-2.2,1.8-4.8,1.8-7.3c0-2.4,1-4.2,1.6-6.5
		c0.6-2.3,0.6-4.3,1.7-6.4c1.1-2.1,0.7-5,2.3-6.8c1.6-1.8,5-0.9,7-2.2c2-1.3,2.6-4.7,4.9-5.4c2.2-0.7,4.6-2.6,7-2.6
		c2.4,0,4.5,3.1,6.7,3.7c2.3,0.7,5.5-0.5,7.5,0.8c2,1.3,2.6,4.4,4.2,6.1c1.6,1.7,2.3,3.8,3.4,6c1.1,2.1,3.3,3.7,3.9,6
		C566.2,247.1,566.1,249.6,566.1,252z"/>
</g>
<g id="XMLID_7_">
	<path id="XMLID_30_" class="st1" d="M350.4,280c0,2.6,2.1,5.1,1.6,7.5c-0.5,2.6,0.1,5.6-1,7.8c-1.1,2.4-2.2,5.3-3.8,7.2
		c-1.7,2-5.9,1.1-8.1,2.2c-2.3,1.2-4,5.8-6.6,5.8c-2.6,0-6.3-0.9-8.6-2.1c-2.2-1.1-3.2-4.9-5-6.9c-1.6-1.8-0.4-5.3-1.5-7.8
		c-1-2.2-4-3.6-4.5-6.2c-0.5-2.4,0.2-4.9,0.2-7.6c0-2.6-3.1-5.7-2.6-8.1c0.5-2.6,3.3-4.7,4.3-7c1.1-2.4,3.6-3.8,5.2-5.7
		c1.7-2,3.9-2.5,6.1-3.7c2.3-1.2,3.8-2.9,6.4-2.9c2.6,0,5.9-1.7,8.2-0.5c2.2,1.1,1.2,6.2,3,8.2c1.6,1.8,5.5,2,6.6,4.5
		c1,2.2,2.2,4.7,2.7,7.3C353.5,274.7,350.4,277.4,350.4,280z"/>
</g>
<g id="XMLID_8_">
	<path id="XMLID_32_" class="st1" d="M492.6,459c0,2.5-2.2,4.5-3.1,6.7c-0.9,2.3,0.8,6.4-0.8,8.2c-1.6,1.8-5.6,1.2-7.7,2.5
		c-2,1.3-4.1,2-6.5,2.7c-2.3,0.6-4.5,3.9-7,3.9c-2.5,0-5.4-0.7-7.7-1.4c-2.4-0.7-3.4-4.5-5.5-5.8c-2.1-1.3-2.9-3.2-4.5-5.1
		c-1.6-1.9-5-2.3-5.8-4.6c-0.9-2.2,0.2-4.7,0.2-7.2c0-2.5-1.4-5.2-0.6-7.4c0.9-2.3,3.5-3.5,5.1-5.3c1.6-1.8,2.3-4.6,4.4-5.9
		c2-1.3,4.9-0.7,7.3-1.4c2.3-0.6,4.4-3.2,7-3.2c2.5,0,4.5,3,6.8,3.6c2.4,0.7,4,1.9,6,3.2c2.1,1.3,6.1,0.3,7.7,2.1
		c1.6,1.9,3.5,4.2,4.3,6.5C493.2,453.5,492.6,456.5,492.6,459z"/>
</g>
<g id="XMLID_17_">
	<path id="XMLID_54_" class="st2" d="M465.5,289.5c0,2.4,2.5,4.9,2.1,7.2c-0.5,2.4-2,4.4-2.9,6.6c-0.9,2.2-3.1,3.5-4.4,5.5
		c-1.3,2-2.7,3.5-4.4,5.1c-1.7,1.7-2.2,4.5-4.2,5.8c-2,1.3-2.6,5.9-4.8,6.8c-2.2,0.9-5.7-1.2-8.1-0.7c-2.3,0.5-4.8-0.3-7.2-0.3
		s-5.4,3.3-7.7,2.8c-2.4-0.5-3.3-5.9-5.5-6.8c-2.2-0.9-3.8-2.2-5.8-3.5c-2-1.3-5-1.1-6.7-2.8c-1.7-1.7-3.1-3.6-4.5-5.5
		c-1.3-2-2.2-4.1-3.1-6.3c-0.9-2.2-2.9-4.1-3.3-6.5c-0.5-2.3,2.6-4.8,2.6-7.3s-4.3-5.2-3.8-7.5c0.5-2.4,5.1-3.5,6-5.7
		c0.9-2.2-0.8-5.8,0.6-7.7c1.3-2,4.5-2.5,6.2-4.2c1.7-1.7,2.8-4,4.8-5.3c2-1.3,4.4-1.8,6.6-2.7c2.2-0.9,3.7-4.7,6.1-5.2
		c2.3-0.5,5.2,2.9,7.6,2.9s4.4,1.3,6.7,1.8c2.4,0.5,5.4-1.8,7.6-0.9c2.2,0.9,4.9,1.6,6.9,2.9c2,1.3,1.7,5.4,3.4,7.1
		c1.7,1.7,1.7,4.1,3.1,6.1c1.3,2,1.9,3.6,2.8,5.9c0.9,2.2,7.8,2.6,8.3,4.9C470.7,284.1,465.5,287.1,465.5,289.5z"/>
</g>
<g id="XMLID_16_">
	<path id="XMLID_52_" class="st2" d="M515.8,364c0,2.5-1.8,4.8-1.4,7.1c0.4,2.5-0.9,5.3-0.1,7.5c0.8,2.4,2,4.7,3.3,6.7
		c1.3,2.1,5.8,1.3,7.5,2.9c1.8,1.7,2.8,2.9,4.9,3.9c2.2,1,3.5,0.8,6,0.8c2.5,0,5.3,3.6,7.5,2.6c2.1-1,4.2-2.8,6-4.5
		c1.7-1.6,2.5-4.1,3.8-6.3c1.2-2,1.1-4.5,2-6.9c0.8-2.2,5.2-3.7,5.6-6.1c0.4-2.3-1-5.2-1-7.6c0-2.5-2.4-4.7-2.8-7
		c-0.4-2.5-0.7-4.7-1.5-6.9c-0.8-2.4,1.3-6.3,0.1-8.3c-1.3-2.1-3.6-4.3-5.3-5.9c-1.8-1.7-6-0.1-8.1-1c-2.2-1-4-4-6.4-4
		c-2.5,0-5.1,0.8-7.4,1.8c-2.1,1-4,2.9-5.8,4.6c-1.7,1.6-3.9,3.1-5.3,5.3c-1.2,2-3.4,4-4.3,6.4c-0.8,2.2,2.8,5.7,2.4,8.1
		C515.4,359.5,515.8,361.5,515.8,364z"/>
</g>
<g id="XMLID_15_">
	<path id="XMLID_50_" class="st2" d="M334.8,394c0-2.3-2.3-5.1-1.8-7.3c0.5-2.2,6-2.7,7-4.7c1-2-0.7-5.6,0.7-7.3
		c1.4-1.8,2.8-4,4.6-5.4c1.7-1.4,4.3-2,6.4-3c2-1,4.8,0.4,7-0.1c2.1-0.5,4.1-2.2,6.4-2.2c2.3,0,5-1.6,7.1-1.1
		c2.2,0.5,4.9,1.1,6.9,2.1c2,1,1.3,6.3,3,7.7c1.8,1.4,3.4,2.2,4.8,3.9c1.4,1.7,3.7,2.6,4.7,4.7c1,2,3.6,3.6,4.1,5.8
		c0.5,2.1,2.1,4.7,2.1,7c0,2.3-2.2,4.7-2.7,6.9c-0.5,2.2,0,5.2-1,7.2c-1,2-4.6,2.6-6,4.4c-1.4,1.8-3.6,2.4-5.3,3.8
		c-1.7,1.4-3.1,3-5.1,4c-2,1-3.5,3.5-5.7,4c-2.1,0.5-4.6,0.2-6.9,0.2c-2.3,0-4.7,0.1-6.9-0.4c-2.2-0.5-5.4,0.5-7.4-0.5
		c-2-1-3.3-4-5.1-5.4c-1.8-1.4-4.8-2.1-6.2-3.9c-1.4-1.7,1.1-6.1,0.1-8.1c-1-2-0.8-3.9-1.3-6.1C337.8,397.9,334.8,396.3,334.8,394z"
		/>
</g>
<g id="XMLID_14_">
	<path id="XMLID_48_" class="st2" d="M455.4,200.5c0,2.5,1.2,4.5-0.7,6.7c-1.5,1.7-4.4,1.5-6.9,2.8c-2.1,1.1-3.4,4-6.1,4.8
		c-2.4,0.7-5.1-0.8-7.8-0.4c-2.5,0.3-4.8,1.8-7.4,1.8c-2.7,0-4.9-2-7.4-2.4c-2.7-0.4-5.3,0.7-7.6,0c-2.6-0.8-5.9,0.3-8-0.9
		c-2.5-1.3-4.9-3.1-6.4-4.9c-1.9-2.1-2.6-5.2-2.6-7.7c0-2.5,2.8-3.6,4.7-5.7c1.5-1.7,1.6-5.7,4.1-7c2.1-1.1,4.3-3.8,7-4.6
		c2.4-0.7,5.5,0,8.2-0.3c2.5-0.3,5.3-1.4,7.9-1.4c2.7,0,5.4,1.3,7.9,1.6c2.7,0.4,4.6,3.7,7,4.4c2.6,0.8,6-0.7,8.1,0.4
		c2.5,1.3,2.9,5,4.5,6.7C455.8,196.7,455.4,198,455.4,200.5z"/>
</g>
<g id="XMLID_13_">
	<path id="XMLID_49_" class="st2" d="M573.1,255c0,2.4,1.7,5.3,1.2,7.5c-0.6,2.3-1.1,5.3-2.2,7.3c-1.1,2.1-4,3.6-5.5,5.3
		c-1.6,1.8-4.7,1.8-6.7,3.1c-2,1.3-3,5.2-5.2,5.8c-2.2,0.7-5.2-1-7.6-1c-2.4,0-4.2-2.3-6.4-3c-2.3-0.7-6.4,2.5-8.4,1.2
		c-2-1.3-1.1-6.1-2.7-7.9c-1.6-1.7-3.1-3.1-4.2-5.2c-1.1-2.1-3.9-3.5-4.5-5.9c-0.5-2.2,1.8-4.8,1.8-7.3c0-2.4,1-4.2,1.6-6.5
		c0.6-2.3,0.6-4.3,1.7-6.4c1.1-2.1,0.7-5,2.3-6.8c1.6-1.8,5-0.9,7-2.2c2-1.3,2.6-4.7,4.9-5.4c2.2-0.7,4.6-2.6,7-2.6
		c2.4,0,4.5,3.1,6.7,3.7c2.3,0.7,5.5-0.5,7.5,0.8c2,1.3,2.6,4.4,4.2,6.1c1.6,1.7,2.3,3.8,3.4,6c1.1,2.1,3.3,3.7,3.9,6
		C573.2,250.1,573.1,252.6,573.1,255z"/>
</g>
<g id="XMLID_11_">
	<path id="XMLID_51_" class="st2" d="M357.4,283c0,2.6,2.1,5.1,1.6,7.5c-0.5,2.6,0.1,5.6-1,7.8c-1.1,2.4-2.2,5.3-3.8,7.2
		c-1.7,2-5.9,1.1-8.1,2.2c-2.3,1.2-4,5.8-6.6,5.8c-2.6,0-6.3-0.9-8.6-2.1c-2.2-1.1-3.2-4.9-5-6.9c-1.6-1.8-0.4-5.3-1.5-7.8
		c-1-2.2-4-3.6-4.5-6.2c-0.5-2.4,0.2-4.9,0.2-7.6c0-2.6-3.1-5.7-2.6-8.1c0.5-2.6,3.3-4.7,4.3-7c1.1-2.4,3.6-3.8,5.2-5.7
		c1.7-2,3.9-2.5,6.1-3.7c2.3-1.2,3.8-2.9,6.4-2.9c2.6,0,5.9-1.7,8.2-0.5c2.2,1.1,1.2,6.2,3,8.2c1.6,1.8,5.5,2,6.6,4.5
		c1,2.2,2.2,4.7,2.7,7.3C360.5,277.7,357.4,280.4,357.4,283z"/>
</g>
<g id="XMLID_9_">
	<path id="XMLID_53_" class="st2" d="M499.6,462c0,2.5-2.2,4.5-3.1,6.7c-0.9,2.3,0.8,6.4-0.8,8.2c-1.6,1.8-5.6,1.2-7.7,2.5
		c-2,1.3-4.1,2-6.5,2.7c-2.3,0.6-4.5,3.9-7,3.9c-2.5,0-5.4-0.7-7.7-1.4c-2.4-0.7-3.4-4.5-5.5-5.8c-2.1-1.3-2.9-3.2-4.5-5.1
		c-1.6-1.9-5-2.3-5.8-4.6c-0.9-2.2,0.2-4.7,0.2-7.2c0-2.5-1.4-5.2-0.6-7.4c0.9-2.3,3.5-3.5,5.1-5.3c1.6-1.8,2.3-4.6,4.4-5.9
		c2-1.3,4.9-0.7,7.3-1.4c2.3-0.6,4.4-3.2,7-3.2c2.5,0,4.5,3,6.8,3.6c2.4,0.7,4,1.9,6,3.2c2.1,1.3,6.1,0.3,7.7,2.1
		c1.6,1.9,3.5,4.2,4.3,6.5C500.2,456.5,499.6,459.5,499.6,462z"/>
</g>
</svg>
