<?xml version="1.0" encoding="utf-8"?>
<!-- Generator: Adobe Illustrator 16.0.0, SVG Export Plug-In . SVG Version: 6.00 Build 0)  -->
<!DOCTYPE svg PUBLIC "-//W3C//DTD SVG 1.1//EN" "http://www.w3.org/Graphics/SVG/1.1/DTD/svg11.dtd">
<svg version="1.1" id="Layer_1" xmlns="http://www.w3.org/2000/svg" xmlns:xlink="http://www.w3.org/1999/xlink" x="0px" y="0px"
	 width="100px" height="100px" viewBox="0 0 100 100" enable-background="new 0 0 100 100" xml:space="preserve">
<path d="M95.1,48.7c0,25.6-20.8,46.4-46.4,46.4c-25.6,0-46.4-20.8-46.4-46.4c0-7.8,1.9-15.2,5.3-21.6c1.3-2.4,2.7-4.7,4.4-6.8
	c8.5-10.9,21.8-18,36.7-18c16.6,0,31.2,8.8,39.4,21.9c1.3,2.1,2.4,4.2,3.4,6.5C93.8,36.2,95.1,42.3,95.1,48.7z"/>
<circle fill="#FFFFFF" cx="61.5" cy="31.5" r="18"/>
<path fill="#FFFFFF" d="M13,67.8c0,0-10.5-20.5,0-35c7-16.2,12.9-3.6,8.2-1.2c-4,2-7.8,9.8-8,15.5s2.2,14.8,5,18.5s0.3,8.5-2,6
	S13,67.8,13,67.8z"/>
<circle cx="60.5" cy="23.7" r="6.3"/>
<circle cx="64.7" cy="37.5" r="9.1"/>
<circle fill="#FFFFFF" cx="60.9" cy="23.6" r="4.1"/>
<circle fill="#FFFFFF" cx="64.8" cy="37.1" r="6.8"/>
<g>
</g>
<g>
</g>
<g>
</g>
<g>
</g>
<g>
</g>
<g>
</g>
<g>
</g>
<g>
</g>
<g>
</g>
<g>
</g>
<g>
</g>
<g>
</g>
<g>
</g>
<g>
</g>
<g>
</g>
</svg>
