<?xml version="1.0" encoding="utf-8"?>
<!-- Generator: Adobe Illustrator 16.0.0, SVG Export Plug-In . SVG Version: 6.00 Build 0)  -->
<!DOCTYPE svg PUBLIC "-//W3C//DTD SVG 1.1//EN" "http://www.w3.org/Graphics/SVG/1.1/DTD/svg11.dtd">
<svg version="1.1" id="Layer_1" xmlns="http://www.w3.org/2000/svg" xmlns:xlink="http://www.w3.org/1999/xlink" x="0px" y="0px"
	 width="100px" height="100px" viewBox="0 0 100 100" enable-background="new 0 0 100 100" xml:space="preserve">
<circle cx="50.3" cy="49.7" r="48.7"/>
<circle fill="#FFFFFF" cx="50.3" cy="49.7" r="43.8"/>
<circle cx="50.3" cy="49.7" r="2.4"/>
<rect x="49" y="7" width="3" height="9"/>
<rect x="29.9" y="12" transform="matrix(0.866 -0.5001 0.5001 0.866 -4.0589 17.9138)" width="3" height="9"/>
<rect x="15.9" y="25.9" transform="matrix(0.5 -0.866 0.866 0.5 -17.6798 30.2555)" width="3" height="9"/>
<rect x="8" y="48" width="9" height="3"/>
<rect x="16" y="63.9" transform="matrix(-0.4999 -0.8661 0.8661 -0.4999 -33.0479 117.7957)" width="3" height="9"/>
<rect x="29.8" y="77.8" transform="matrix(-0.8661 -0.4999 0.4999 -0.8661 17.1853 169.3012)" width="3" height="9"/>
<rect x="49" y="83" width="3" height="9"/>
<rect x="67.9" y="77.8" transform="matrix(-0.866 0.5001 -0.5001 -0.866 170.6688 118.9603)" width="3" height="9"/>
<rect x="81.7" y="63.9" transform="matrix(-0.4998 0.8661 -0.8661 -0.4998 184.034 30.6008)" width="3" height="9"/>
<polygon points="84,51 84,48 92.8,48 92.7,51 "/>
<polygon points="80.2,34 78.7,31.4 86.3,27 87.7,29.7 "/>
<polygon points="68.6,21.4 66,19.8 70.5,12.2 73,13.9 "/>
<rect x="51" y="48" width="28" height="2"/>
<rect x="33.3" y="53.8" transform="matrix(-0.8502 0.5264 -0.5264 -0.8502 107.4273 78.9864)" width="18.3" height="2"/>
<g>
</g>
<g>
</g>
<g>
</g>
<g>
</g>
<g>
</g>
<g>
</g>
<g>
</g>
<g>
</g>
<g>
</g>
<g>
</g>
<g>
</g>
<g>
</g>
<g>
</g>
<g>
</g>
<g>
</g>
</svg>
