<?xml version="1.0" encoding="utf-8"?>
<!-- Generator: Adobe Illustrator 16.0.0, SVG Export Plug-In . SVG Version: 6.00 Build 0)  -->
<!DOCTYPE svg PUBLIC "-//W3C//DTD SVG 1.1//EN" "http://www.w3.org/Graphics/SVG/1.1/DTD/svg11.dtd">
<svg version="1.1" id="Layer_1" xmlns="http://www.w3.org/2000/svg" xmlns:xlink="http://www.w3.org/1999/xlink" x="0px" y="0px"
	 width="100px" height="100px" viewBox="0 0 100 100" enable-background="new 0 0 100 100" xml:space="preserve">
<path fill="#0000FF" d="M99,50.4c0,10-3,19.4-8.3,27.1c-3.1,4.6-6.9,8.6-11.3,11.9c-3.5,2.6-7.4,4.8-11.6,6.4
	c-5.4,2.1-11.3,3.2-17.5,3.2c-6.3,0-12.2-1.2-17.7-3.3c-6.1-2.4-11.7-6-16.3-10.6C7.3,76.3,1.7,64,1.7,50.4c0-9,2.5-17.5,6.8-24.7
	c6-10.2,15.7-18,27.2-21.7c4.6-1.5,9.6-2.3,14.7-2.3c6.1,0,12,1.1,17.4,3.2c6.9,2.6,13,6.8,18,12c7.7,8.1,12.5,18.8,13.2,30.7
	C99,48.6,99,49.5,99,50.4z"/>
<path fill="#00FF00" d="M98.9,47.7c-1.4,0.7-3,1.3-4.9,1.7c-9.3,2.2-9.5,3-15.4,4.9c-5.9,1.9-7,1.3-14.4,0s-7.8-2.8-10.6-10
	c-2.9-7.2-0.4-6.4,1.1-13.3c1.5-6.8,2.7-5.1,5.9-8.7c3.2-3.6,15.3-5.3,15.3-5.3h9.8C93.4,25.1,98.3,35.8,98.9,47.7z"/>
<path fill="#00FF00" d="M36.8,80.8c-7.5,1-9.4-1.2-15,1.6c-5,2.5-1.4,3.5-5.5,2.8C7.3,76.3,1.7,64,1.7,50.4c0-9,2.5-17.5,6.8-24.7
	c2.1-0.3,2-0.3,5.2-1.1c4.5-1,3.2-9.1,7.3-1.6s4.9,3.6,2.7,8.7c-2.2,5.1-3.5,1.6-3.4,10c0.2,8.4-8.4,2.7-0.2,10.7
	c8.3,8,8.3,6.7,10.5,8.8s-5.4-2.1,2.5,5.4c8,7.5,9.9,3.2,12.3,7.5C47.9,78.4,44.3,79.8,36.8,80.8z"/>
<path fill="#00FF00" d="M90.7,77.6c-3.1,4.6-6.9,8.6-11.3,11.9c-0.7,0-1.3-0.1-1.7-0.2c-1.5-0.4-1.8-0.6-5.8-1.3
	c-4.1-0.6-3.7,0.2-5.8-0.8c-2.1-1-2.4-2.9-1.9-9.4c0.5-6.5,1.6-4.8,2.4-6.4c0.8-1.6,8.4-3,13.2-2.5c0,0,5.4,2.4,6.5,3.2
	C87,72.5,89.1,75.2,90.7,77.6z"/>
<path fill="#FFFFFF" d="M67.7,5c-0.5,0.3-1,0.4-1.5,0.4c-2.2,0-2.4,1.4-5.1,1.9c-2.7,0.6-3.5,0.8-8.6,0c-5.1-0.8-6.2,0.3-8.1,0
	c-1.9-0.3-6.1-1.4-7.8-2.4c-0.3-0.2-0.6-0.5-1-0.8c4.6-1.5,9.6-2.3,14.7-2.3C56.5,1.8,62.3,2.9,67.7,5z"/>
<path fill="#FFFFFF" d="M67.8,95.8c-5.4,2.1-11.3,3.2-17.5,3.2c-6.3,0-12.2-1.2-17.7-3.3c1-0.5,2.2-1,3.7-1c4.3,0,6.8-0.6,11.3,0
	c4.5,0.6,8.3,0.8,10.7,0.8c2.4,0,2.2-0.1,5.7,0.2C65.3,95.8,66.6,95.8,67.8,95.8z"/>
<g>
</g>
<g>
</g>
<g>
</g>
<g>
</g>
<g>
</g>
<g>
</g>
<g>
</g>
<g>
</g>
<g>
</g>
<g>
</g>
<g>
</g>
<g>
</g>
<g>
</g>
<g>
</g>
<g>
</g>
</svg>
