<?xml version="1.0" encoding="utf-8"?>
<!-- Generator: Adobe Illustrator 16.0.0, SVG Export Plug-In . SVG Version: 6.00 Build 0)  -->
<!DOCTYPE svg PUBLIC "-//W3C//DTD SVG 1.1//EN" "http://www.w3.org/Graphics/SVG/1.1/DTD/svg11.dtd">
<svg version="1.1" xmlns="http://www.w3.org/2000/svg" xmlns:xlink="http://www.w3.org/1999/xlink" x="0px" y="0px" width="100px"
	 height="100px" viewBox="0 0 100 100" enable-background="new 0 0 100 100" xml:space="preserve">
<g id="Layer_2">
	<path fill="#D282A6" d="M99,74.5C99,88,88,99,74.5,99h-49C12,99,1,88,1,74.5v-49C1,12,12,1,25.5,1h49C88,1,99,12,99,25.5V74.5z"/>
	<path fill="#6E4555" d="M96,72.7C96,85.6,85.6,96,72.7,96H26.3C13.4,96,3,85.6,3,72.7V26.3C3,13.4,13.4,3,26.3,3h46.4
		C85.6,3,96,13.4,96,26.3V72.7z"/>
</g>
<g id="Layer_1">
	<g id="MoonBall">
		<path fill="#A3A3A3" d="M86.9,49.4c0,2.6,0.7,5,0.3,7.5c-0.5,2.5-0.4,5.2-1.4,7.5c-1,2.3-3.5,3.8-4.9,5.9c-1.4,2.1-2,4.8-3.8,6.6
			c-1.8,1.8-3.2,4.4-5.3,5.8c-2.1,1.4-5.2,1.3-7.5,2.3c-2.3,1-4.3,3.6-6.8,4.1c-2.4,0.5-5.3-0.5-7.9-0.5c-2.6,0-4.8-2.2-7.3-2.7
			C39.8,85.3,38,84,35.7,83c-2.4-1-5.4-0.2-7.5-1.6C26.1,80,22.8,79.8,21,78c-1.8-1.8-0.4-6.2-1.8-8.3c-1.4-2.1-6.2-2.4-7.2-4.7
			c-1-2.3,2.2-5.9,1.7-8.4c-0.5-2.4-2.1-4.5-2.1-7.1c0-2.6,1.6-4.7,2.1-7.1c0.5-2.5,0.6-4.8,1.6-7.1c1-2.3,0.5-5.3,1.9-7.4
			c1.4-2.1,2.2-5,4-6.7c1.8-1.8,3.9-3.7,6-5.2c2.1-1.4,5.6-0.4,7.9-1.4c2.3-1,4.1-4.1,6.6-4.6c2.4-0.5,5.3,2.5,7.9,2.5
			c2.6,0,5.2-2.1,7.7-1.6c2.5,0.5,5.6,0.1,7.9,1c2.3,1,4,3.7,6.1,5.1c2.1,1.4,2.3,4.9,4.1,6.7c1.8,1.8,6.4,1.2,7.8,3.3
			c1.4,2.1,0.4,5.6,1.4,8c1,2.3,0.1,4.9,0.6,7.4C85.7,44.7,86.9,46.8,86.9,49.4"/>
		<path fill="#3F3F3F" d="M45.6,18.8c1.7,2.2,1.1,5.5-1.4,7.5c-2.5,2-5.9,1.8-7.6-0.4c-1.7-2.2-1.1-5.5,1.4-7.5
			C40.4,16.4,43.9,16.6,45.6,18.8"/>
		<path fill="#3F3F3F" d="M76.7,39.7c0,3.4-2.3,6.2-5,6.2c-2.8,0-5-2.8-5-6.2c0-3.4,2.3-6.2,5-6.2C74.5,33.5,76.7,36.3,76.7,39.7"/>
		<path fill="#3F3F3F" d="M43.5,37.4c0.3,1.6-0.4,3.1-1.7,3.4c-1.3,0.3-2.6-0.8-2.9-2.4c-0.3-1.6,0.4-3.1,1.7-3.4
			C41.9,34.8,43.2,35.8,43.5,37.4"/>
		<path fill="#3F3F3F" d="M45.6,70.1c0.3,1.6-0.4,3.1-1.7,3.4c-1.3,0.3-2.6-0.8-2.9-2.4c-0.3-1.6,0.4-3.1,1.7-3.4
			C44,67.4,45.3,68.5,45.6,70.1"/>
		<path fill="#3F3F3F" d="M57.5,34.6c0.3,1.6-0.4,3.1-1.7,3.4s-2.6-0.8-2.9-2.4c-0.3-1.6,0.4-3.1,1.7-3.4C55.8,32,57.1,33,57.5,34.6
			"/>
		<path fill="#3F3F3F" d="M63.8,22.3c0,2.2-1.5,4-3.3,4c-1.8,0-3.3-1.8-3.3-4c0-2.2,1.5-4,3.3-4C62.4,18.3,63.8,20.1,63.8,22.3"/>
		<path fill="#3F3F3F" d="M56.5,51.9c0,3.7-2.7,6.8-6,6.8c-3.3,0-6-3-6-6.8c0-3.7,2.7-6.8,6-6.8C53.9,45.1,56.5,48.1,56.5,51.9"/>
		<path fill="#3F3F3F" d="M37.4,59c0,3.5-2.7,6.3-6.1,6.3s-6.1-2.8-6.1-6.3c0-3.5,2.7-6.3,6.1-6.3S37.4,55.6,37.4,59"/>
		<path fill="#3F3F3F" d="M49.6,76.5c0,3.6,2.5,6.5,5.6,6.5s5.6-2.9,5.6-6.5c0-3.6-2.5-6.5-5.6-6.5S49.6,72.9,49.6,76.5"/>
		<path fill="#3F3F3F" d="M65.1,68.9c1.4,2.2,5.4,2.1,8.8-0.2c3.5-2.3,5.1-5.9,3.7-8s-5.4-2.1-8.8,0.2
			C65.3,63.1,63.6,66.7,65.1,68.9"/>
		<path fill="#3F3F3F" d="M67.5,48.8c0.5,0.4,0.4,1.4-0.2,2.2c-0.6,0.8-1.6,1.1-2.1,0.6c-0.5-0.4-0.4-1.4,0.2-2.2
			C66.1,48.6,67,48.3,67.5,48.8"/>
		<path fill="#3F3F3F" d="M27.9,33.5c0.5,0.4,0.4,1.4-0.2,2.2s-1.6,1-2.1,0.6c-0.5-0.4-0.4-1.4,0.2-2.2C26.4,33.3,27.4,33,27.9,33.5
			"/>
		<path fill="#3F3F3F" d="M19.5,48.8c0.4,1.1,1.7,1.6,2.9,1.2c1.2-0.4,1.8-1.7,1.3-2.8c-0.4-1.1-1.7-1.6-2.9-1.2
			C19.7,46.4,19.1,47.6,19.5,48.8"/>
		<path fill="#787878" d="M47,20.9c1.7,2.2,1.1,5.5-1.4,7.5c-2.5,2-5.9,1.8-7.6-0.4c-1.7-2.2-1.1-5.5,1.4-7.5
			C41.8,18.5,45.2,18.7,47,20.9"/>
		<path fill="#787878" d="M78.1,41.8c0,3.4-2.3,6.2-5,6.2c-2.8,0-5-2.8-5-6.2c0-3.4,2.3-6.2,5-6.2C75.8,35.6,78.1,38.3,78.1,41.8"/>
		<path fill="#787878" d="M44.9,39.5c0.3,1.6-0.4,3.1-1.7,3.4c-1.3,0.3-2.6-0.8-2.9-2.4c-0.3-1.6,0.4-3.1,1.7-3.4
			C43.3,36.8,44.6,37.9,44.9,39.5"/>
		<path fill="#787878" d="M47,72.2c0.3,1.6-0.4,3.1-1.7,3.4c-1.3,0.3-2.6-0.8-2.9-2.4c-0.3-1.6,0.4-3.1,1.7-3.4
			C45.4,69.5,46.7,70.6,47,72.2"/>
		<path fill="#787878" d="M58.8,36.7c0.3,1.6-0.4,3.1-1.7,3.4c-1.3,0.3-2.6-0.8-2.9-2.4c-0.3-1.6,0.4-3.1,1.7-3.4
			C57.2,34.1,58.5,35.1,58.8,36.7"/>
		<path fill="#787878" d="M65.2,24.4c0,2.2-1.5,4-3.3,4c-1.8,0-3.3-1.8-3.3-4c0-2.2,1.5-4,3.3-4C63.8,20.4,65.2,22.2,65.2,24.4"/>
		<path fill="#787878" d="M57.9,54c0,3.7-2.7,6.8-6,6.8c-3.3,0-6-3-6-6.8c0-3.7,2.7-6.8,6-6.8C55.2,47.2,57.9,50.2,57.9,54"/>
		<path fill="#787878" d="M38.8,61.1c0,3.5-2.7,6.3-6.1,6.3c-3.4,0-6.1-2.8-6.1-6.3c0-3.5,2.7-6.3,6.1-6.3
			C36.1,54.8,38.8,57.7,38.8,61.1"/>
		<path fill="#787878" d="M51,78.6c0,3.6,2.5,6.5,5.6,6.5c3.1,0,5.6-2.9,5.6-6.5c0-3.6-2.5-6.5-5.6-6.5C53.5,72.1,51,75,51,78.6"/>
		<path fill="#787878" d="M66.5,70.9c1.4,2.2,5.4,2.1,8.8-0.2c3.5-2.3,5.1-5.9,3.7-8c-1.4-2.2-5.4-2.1-8.8,0.2
			C66.7,65.2,65,68.8,66.5,70.9"/>
		<path fill="#787878" d="M68.9,50.8c0.5,0.4,0.4,1.4-0.2,2.2c-0.6,0.8-1.6,1-2.1,0.6c-0.5-0.4-0.4-1.4,0.2-2.2
			C67.5,50.7,68.4,50.4,68.9,50.8"/>
		<path fill="#787878" d="M29.3,35.5c0.5,0.4,0.4,1.4-0.2,2.2c-0.6,0.8-1.6,1-2.1,0.6c-0.5-0.4-0.4-1.4,0.2-2.2
			C27.8,35.4,28.8,35.1,29.3,35.5"/>
		<path fill="#787878" d="M20.9,50.8c0.4,1.1,1.7,1.6,2.9,1.2c1.2-0.4,1.8-1.7,1.3-2.8c-0.4-1.1-1.7-1.6-2.9-1.2
			C21.1,48.5,20.5,49.7,20.9,50.8"/>
	</g>
	<g>
	</g>
	<g>
	</g>
	<g>
	</g>
	<g>
	</g>
	<g>
	</g>
	<g>
	</g>
	<g>
	</g>
	<g>
	</g>
	<g>
	</g>
	<g>
	</g>
	<g>
	</g>
	<g>
	</g>
	<g>
	</g>
	<g>
	</g>
	<g>
	</g>
</g>
</svg>
