<?xml version="1.0" encoding="utf-8"?>
<!-- Generator: Adobe Illustrator 19.0.0, SVG Export Plug-In . SVG Version: 6.00 Build 0)  -->
<svg version="1.1" xmlns="http://www.w3.org/2000/svg" xmlns:xlink="http://www.w3.org/1999/xlink" x="0px" y="0px"
	 viewBox="0 0 100 100" style="enable-background:new 0 0 100 100;" xml:space="preserve">
<style type="text/css">
	.st0{fill:#A3A3A3;}
	.st1{fill:#3F3F3F;}
	.st2{fill:#787878;}
</style>
<g id="Layer_1">
</g>
<g id="Layer_2">
	<g id="XMLID_3_">
		<path id="XMLID_12_" class="st0" d="M95,51.8c0,3.5,0.8,6.9,0.1,10.3c-0.8,3.4-1,7.1-2.5,10.2c-1.5,3.1-4.9,5.1-7.1,7.8
			c-2.2,2.7-3.5,6.2-6.2,8.4c-2.7,2.2-5.1,5.3-8.3,6.8c-3.1,1.5-7.2,0.9-10.6,1.7c-3.3,0.8-6.7,3.5-10.3,3.5c-3.5,0-7.1-2-10.5-2.7
			c-3.4-0.8-5.8-4.2-8.9-5.6c-3.1-1.5-5.2-3.9-7.9-6c-2.7-2.2-6.7-2.6-8.9-5.4c-2.2-2.7-6.1-4.6-7.6-7.8c-1.5-3.1,1.8-7.9,1-11.3
			c-0.8-3.3-6-6.2-6-9.8c0-3.5,5.3-6.4,6.1-9.8c0.8-3.4,0.2-6.9,1.7-10c1.5-3.1,4.6-4.9,6.7-7.6c2.2-2.7,3.9-5.3,6.6-7.5
			c2.7-2.2,4.4-5.8,7.5-7.3c3.1-1.5,6.1-4.1,9.6-4.9c3.3-0.8,7.2-1.4,10.7-1.4c3.5,0,6.8,3.4,10.1,4.1c3.4,0.8,7.8-0.9,10.9,0.6
			c3.1,1.5,4,6.7,6.7,8.9c2.7,2.2,7.1,2.6,9.2,5.3c2.2,2.7,5.5,5.1,7.1,8.3c1.5,3.1,0.9,7.3,1.7,10.8C96.6,44.7,95,48.2,95,51.8z"/>
	</g>
	<g id="XMLID_40_">
		
			<ellipse id="XMLID_30_" transform="matrix(0.7853 -0.6192 0.6192 0.7853 -3.3673 28.8359)" class="st1" cx="39.9" cy="19.3" rx="6.9" ry="6.1"/>
		<ellipse id="XMLID_32_" class="st1" cx="76.7" cy="40.1" rx="6.1" ry="7.5"/>
		
			<ellipse id="XMLID_41_" transform="matrix(0.9792 -0.203 0.203 0.9792 -6.8707 8.9211)" class="st1" cx="40.1" cy="38" rx="2.9" ry="3.5"/>
		
			<ellipse id="XMLID_45_" transform="matrix(0.9792 -0.203 0.203 0.9792 -14.789 10.2471)" class="st1" cx="42.6" cy="77.2" rx="2.9" ry="3.5"/>
		
			<ellipse id="XMLID_44_" transform="matrix(0.9792 -0.203 0.203 0.9792 -5.8446 12.2432)" class="st1" cx="56.8" cy="34.6" rx="2.9" ry="3.5"/>
		<ellipse id="XMLID_33_" class="st1" cx="63.3" cy="19.3" rx="4" ry="4.8"/>
		<ellipse id="XMLID_35_" class="st1" cx="51.3" cy="54.8" rx="7.2" ry="8.1"/>
		<ellipse id="XMLID_36_" class="st1" cx="28.2" cy="63.3" rx="7.3" ry="7.5"/>
		<ellipse id="XMLID_37_" class="st1" cx="56.8" cy="84.3" rx="6.7" ry="7.8"/>
		
			<ellipse id="XMLID_38_" transform="matrix(-0.8367 0.5477 -0.5477 -0.8367 178.4941 87.264)" class="st1" cx="76.2" cy="70.2" rx="9" ry="5.6"/>
		
			<ellipse id="XMLID_39_" transform="matrix(0.6422 -0.7666 0.7666 0.6422 -15.2453 72.7323)" class="st1" cx="70.3" cy="52.7" rx="2.2" ry="1.5"/>
		
			<ellipse id="XMLID_42_" transform="matrix(0.6422 -0.7666 0.7666 0.6422 -18.1964 29.6445)" class="st1" cx="22.7" cy="34.3" rx="2.2" ry="1.5"/>
		
			<ellipse id="XMLID_43_" transform="matrix(-0.9344 0.3561 -0.3561 -0.9344 49.7269 90.9408)" class="st1" cx="16.5" cy="50" rx="2.7" ry="2.6"/>
	</g>
	<g id="XMLID_47_">
		
			<ellipse id="XMLID_62_" transform="matrix(0.7853 -0.6192 0.6192 0.7853 -4.5605 30.4089)" class="st2" cx="41.6" cy="21.8" rx="6.9" ry="6.1"/>
		<ellipse id="XMLID_61_" class="st2" cx="78.3" cy="42.6" rx="6.1" ry="7.5"/>
		
			<ellipse id="XMLID_60_" transform="matrix(0.9792 -0.203 0.203 0.9792 -7.3447 9.3124)" class="st2" cx="41.7" cy="40.5" rx="2.9" ry="3.5"/>
		
			<ellipse id="XMLID_59_" transform="matrix(0.9792 -0.203 0.203 0.9792 -15.263 10.6385)" class="st2" cx="44.2" cy="79.7" rx="2.9" ry="3.5"/>
		
			<ellipse id="XMLID_58_" transform="matrix(0.9792 -0.203 0.203 0.9792 -6.3185 12.6345)" class="st2" cx="58.4" cy="37.1" rx="2.9" ry="3.5"/>
		<ellipse id="XMLID_57_" class="st2" cx="65" cy="21.8" rx="4" ry="4.8"/>
		<ellipse id="XMLID_56_" class="st2" cx="52.9" cy="57.3" rx="7.2" ry="8.1"/>
		<ellipse id="XMLID_55_" class="st2" cx="29.9" cy="65.9" rx="7.3" ry="7.5"/>
		<ellipse id="XMLID_54_" class="st2" cx="58.5" cy="86.9" rx="6.7" ry="7.8"/>
		
			<ellipse id="XMLID_52_" transform="matrix(-0.8367 0.5477 -0.5477 -0.8367 182.9364 90.9529)" class="st2" cx="77.9" cy="72.8" rx="9" ry="5.6"/>
		
			<ellipse id="XMLID_50_" transform="matrix(0.6422 -0.7666 0.7666 0.6422 -16.5689 74.9103)" class="st2" cx="72" cy="55.2" rx="2.2" ry="1.5"/>
		
			<ellipse id="XMLID_49_" transform="matrix(0.6422 -0.7666 0.7666 0.6422 -19.52 31.8225)" class="st2" cx="24.3" cy="36.8" rx="2.2" ry="1.5"/>
		
			<ellipse id="XMLID_48_" transform="matrix(-0.9344 0.3561 -0.3561 -0.9344 53.8524 95.1948)" class="st2" cx="18.2" cy="52.6" rx="2.7" ry="2.6"/>
	</g>
	<g id="XMLID_1_">
	</g>
	<g id="XMLID_2_">
	</g>
	<g id="XMLID_4_">
	</g>
	<g id="XMLID_5_">
	</g>
	<g id="XMLID_6_">
	</g>
	<g id="XMLID_7_">
	</g>
	<g id="XMLID_8_">
	</g>
	<g id="XMLID_9_">
	</g>
	<g id="XMLID_11_">
	</g>
	<g id="XMLID_13_">
	</g>
	<g id="XMLID_14_">
	</g>
	<g id="XMLID_15_">
	</g>
	<g id="XMLID_16_">
	</g>
	<g id="XMLID_17_">
	</g>
	<g id="XMLID_18_">
	</g>
</g>
</svg>
