<?xml version="1.0" encoding="utf-8"?>
<!-- Generator: Adobe Illustrator 16.0.0, SVG Export Plug-In . SVG Version: 6.00 Build 0)  -->
<!DOCTYPE svg PUBLIC "-//W3C//DTD SVG 1.1//EN" "http://www.w3.org/Graphics/SVG/1.1/DTD/svg11.dtd">
<svg version="1.1" id="Layer_1" xmlns="http://www.w3.org/2000/svg" xmlns:xlink="http://www.w3.org/1999/xlink" x="0px" y="0px"
	 width="100px" height="100px" viewBox="0 0 100 100" enable-background="new 0 0 100 100" xml:space="preserve">
<path fill="#141414" d="M96,30.4C91.2,19.5,82.6,10.7,71.8,5.7c-6.1-2.8-12.9-4.4-20.1-4.4C24.9,1.4,3.2,23,3.2,49.8
	c0,7.4,1.7,14.4,4.6,20.7c4,8.5,10.5,15.7,18.5,20.6c7.4,4.5,16,7.1,25.3,7.1c26.7,0,48.4-21.7,48.4-48.4
	C100.1,42.9,98.6,36.3,96,30.4z M51.7,57.2c-1.8,0-3.4-0.7-4.7-1.9c-1-1-1.8-2.3-2-3.8c-0.1-0.3-0.1-0.7-0.1-1.1
	c0-3.7,3-6.7,6.7-6.7c1.3,0,2.5,0.4,3.6,1c0.8,0.5,1.4,1.1,2,1.8c0.8,1.1,1.2,2.4,1.2,3.9C58.4,54.2,55.4,57.2,51.7,57.2z"/>
<path fill="#3D3D3D" d="M45,51.5c0.3,1.5,1.1,2.7,2.1,3.7c-0.1,0-0.1,0.1-0.2,0.1c-0.3,0.3-0.6,0.6-1,0.9c-0.8,0.8-3.1,4.5-5.8,9.3
	c-4.6,8.1-10.6,19.3-13.8,25.5c-8-4.9-14.5-12.1-18.5-20.6c7.3-3.7,17.4-8.9,25.9-13.2C38.2,55,42.1,53,45,51.5
	C45,51.5,45,51.5,45,51.5z"/>
<path fill="#3D3D3D" d="M96,30.4c-5.4,2.2-17.5,7.3-27.1,11.3c-4.9,2-9.1,3.8-11.6,4.9c-0.5-0.8-1.2-1.5-2-2L60.2,33L71.8,5.7
	C82.6,10.7,91.2,19.5,96,30.4z"/>
<circle fill="none" stroke="#000000" stroke-miterlimit="10" cx="51.2" cy="49" r="40.2"/>
<circle fill="none" stroke="#000000" stroke-width="0.75" stroke-miterlimit="10" cx="51.2" cy="49.6" r="30.2"/>
<circle fill="none" stroke="#000000" stroke-width="0.5625" stroke-miterlimit="10" cx="51.2" cy="49" r="22.6"/>
<path display="none" fill="#FFFFFF" d="M127.2,15.8"/>
<path fill="#A3A3A3" d="M151-11"/>
<path fill="#FF0000" d="M66.2,45c-1.9-6.3-7.8-10.9-14.7-10.9c-6.9,0-12.8,4.6-14.7,10.9c-0.4,1.4-0.7,2.9-0.7,4.5
	c0,8.5,6.9,15.4,15.4,15.4c8.5,0,15.4-6.9,15.4-15.4C66.8,47.9,66.6,46.4,66.2,45z M51.9,51.5c-1.4,0-2.5-1.1-2.5-2.5
	c0-1.4,1.1-2.5,2.5-2.5c1.4,0,2.5,1.1,2.5,2.5C54.4,50.4,53.2,51.5,51.9,51.5z"/>
<path fill="#EF5252" d="M66.2,45H36.7c1.9-6.3,7.8-10.9,14.7-10.9C58.4,34.1,64.2,38.7,66.2,45z"/>
<g>
</g>
<g>
</g>
<g>
</g>
<g>
</g>
<g>
</g>
<g>
</g>
<g>
</g>
<g>
</g>
<g>
</g>
<g>
</g>
<g>
</g>
<g>
</g>
<g>
</g>
<g>
</g>
<g>
</g>
</svg>
