<?xml version="1.0" encoding="utf-8"?>
<!-- Generator: Adobe Illustrator 16.0.0, SVG Export Plug-In . SVG Version: 6.00 Build 0)  -->
<!DOCTYPE svg PUBLIC "-//W3C//DTD SVG 1.1//EN" "http://www.w3.org/Graphics/SVG/1.1/DTD/svg11.dtd">
<svg version="1.1" id="Layer_1" xmlns="http://www.w3.org/2000/svg" xmlns:xlink="http://www.w3.org/1999/xlink" x="0px" y="0px"
	 width="100px" height="100px" viewBox="0 0 100 100" enable-background="new 0 0 100 100" xml:space="preserve">
<g>
	<path d="M97,17c0-7.7-6.2-14-14-14H16C8.2,3,2,9.2,2,17V84c0,7.7,6.2,14,14,14H83c7.7,0,14-6.2,14-14V17z M92,80.4
		C92,87.4,86.4,93,79.4,93H19.6C12.6,93,7,87.4,7,80.4V20.6C7,13.6,12.6,8,19.6,8h59.9C86.4,8,92,13.6,92,20.6V80.4z"/>
	<path opacity="0.5" fill="#B3B3B3" d="M92,20.6C92,13.6,86.4,8,79.4,8H19.6C12.6,8,7,13.6,7,20.6v59.9C7,87.4,12.6,93,19.6,93h59.9
		C86.4,93,92,87.4,92,80.4V20.6z"/>
</g>
<g>
</g>
<g>
</g>
<g>
</g>
<g>
</g>
<g>
</g>
<g>
</g>
<g>
</g>
<g>
</g>
<g>
</g>
<g>
</g>
<g>
</g>
<g>
</g>
<g>
</g>
<g>
</g>
<g>
</g>
</svg>
