<?xml version="1.0" encoding="utf-8"?>
<!-- Generator: Adobe Illustrator 16.0.0, SVG Export Plug-In . SVG Version: 6.00 Build 0)  -->
<!DOCTYPE svg PUBLIC "-//W3C//DTD SVG 1.1//EN" "http://www.w3.org/Graphics/SVG/1.1/DTD/svg11.dtd">
<svg version="1.1" id="Layer_1" xmlns="http://www.w3.org/2000/svg" xmlns:xlink="http://www.w3.org/1999/xlink" x="0px" y="0px"
	 width="100px" height="100px" viewBox="0 0 100 100" enable-background="new 0 0 100 100" xml:space="preserve">
<path fill="#94FF55" d="M95.1,48.7c0,25.6-20.8,46.4-46.4,46.4c-25.6,0-46.4-20.8-46.4-46.4c0-7.8,1.9-15.2,5.3-21.6
	c1.3-2.4,2.7-4.7,4.4-6.8c8.5-10.9,21.8-18,36.7-18c16.6,0,31.2,8.8,39.4,21.9c1.3,2.1,2.4,4.2,3.4,6.5
	C93.8,36.2,95.1,42.3,95.1,48.7z"/>
<path fill="#FFFFB6" d="M91.7,42.7c0,23.4-19,42.4-42.4,42.4c-23.4,0-42.4-19-42.4-42.4c0-3.2,0.2-10.1,0.7-15.6
	C15.4,12.4,30.9,2.3,48.7,2.3C68,2.3,84.5,14,91.5,30.7C91.7,35.2,91.7,40.6,91.7,42.7z"/>
<path fill="#94FF55" d="M87.8,37.9c0,22.8-17.1,41.2-38.2,41.2c-21.1,0-38.2-18.5-38.2-41.2c0-4.8-0.1-11.7,0.6-17.6
	c8.5-10.9,21.8-18,36.7-18c16.6,0,31.2,8.8,39.4,21.9C88.2,28.8,87.8,33.7,87.8,37.9z"/>
<g>
</g>
<g>
</g>
<g>
</g>
<g>
</g>
<g>
</g>
<g>
</g>
<g>
</g>
<g>
</g>
<g>
</g>
<g>
</g>
<g>
</g>
<g>
</g>
<g>
</g>
<g>
</g>
<g>
</g>
</svg>
