<?xml version="1.0" encoding="utf-8"?>
<!-- Generator: Adobe Illustrator 19.0.0, SVG Export Plug-In . SVG Version: 6.00 Build 0)  -->
<svg version="1.1" id="Layer_1" xmlns="http://www.w3.org/2000/svg" xmlns:xlink="http://www.w3.org/1999/xlink" x="0px" y="0px"
	 viewBox="0 0 100 100" style="enable-background:new 0 0 100 100;" xml:space="preserve">
<style type="text/css">
	.st0{fill:#36222A;}
	.st1{fill:#6E4555;}
	.st2{display:none;fill:#F5E3E0;}
	.st3{display:none;fill:none;stroke:#6E4555;stroke-width:7;stroke-miterlimit:10;}
</style>
<path id="XMLID_46_" class="st0" d="M82.1,79.8H22.3c-6.6,0-12-5.4-12-12V34.2c0-6.6,5.4-12,12-12h59.8c6.6,0,12,5.4,12,12v33.5
	C94.1,74.3,88.7,79.8,82.1,79.8z"/>
<path id="XMLID_19_" class="st1" d="M77.2,75.9H17.4c-6.6,0-12-5.4-12-12V34.2c0-6.6,5.4-12,12-12h59.8c6.6,0,12,5.4,12,12v29.7
	C89.2,70.5,83.8,75.9,77.2,75.9z"/>
<path id="XMLID_7_" class="st2" d="M77,63.3H30.8c-0.1,0-0.2,0-0.3-0.1c-1.3-1.2-15.6-12-19-13.9c-0.3-0.2-0.3-0.5,0-0.7l19-13.7
	c0.1,0,0.1-0.1,0.2-0.1H77c1.6,0,3,1.4,3,3.1v22.2C80,61.9,78.7,63.3,77,63.3z"/>
<line id="XMLID_6_" class="st3" x1="40.4" y1="38.5" x2="62.2" y2="60.3"/>
<line id="XMLID_5_" class="st3" x1="63.1" y1="38.5" x2="41.3" y2="60.3"/>
<g id="XMLID_1_">
</g>
<g id="XMLID_2_">
</g>
<g id="XMLID_3_">
</g>
<g id="XMLID_4_">
</g>
<g id="XMLID_8_">
</g>
<g id="XMLID_9_">
</g>
<g id="XMLID_10_">
</g>
<g id="XMLID_11_">
</g>
<g id="XMLID_12_">
</g>
<g id="XMLID_13_">
</g>
<g id="XMLID_14_">
</g>
<g id="XMLID_15_">
</g>
<g id="XMLID_16_">
</g>
<g id="XMLID_17_">
</g>
<g id="XMLID_18_">
</g>
</svg>
