<?xml version="1.0" encoding="utf-8"?>
<!-- Generator: Adobe Illustrator 16.0.0, SVG Export Plug-In . SVG Version: 6.00 Build 0)  -->
<!DOCTYPE svg PUBLIC "-//W3C//DTD SVG 1.1//EN" "http://www.w3.org/Graphics/SVG/1.1/DTD/svg11.dtd">
<svg version="1.1" id="Layer_1" xmlns="http://www.w3.org/2000/svg" xmlns:xlink="http://www.w3.org/1999/xlink" x="0px" y="0px"
	 width="960px" height="560px" viewBox="0 0 960 560" enable-background="new 0 0 960 560" xml:space="preserve">
<path fill="#702C8D" stroke="#702C8D" stroke-miterlimit="10" d="M619.053,46.5H376.947c-7.979,0-14.447,6.468-14.447,14.447
	v453.105c0,7.979,6.468,14.447,14.447,14.447h242.105c7.979,0,14.447-6.469,14.447-14.447V60.947
	C633.5,52.968,627.031,46.5,619.053,46.5z M618.5,453.004c0,11.932-12.088,22.496-27,22.496h-187c-14.912,0-27-10.564-27-22.496
	V135.345c0-11.931,12.088-19.845,27-19.845h187c14.912,0,27,7.914,27,19.845V453.004z"/>
</svg>
